<svg xmlns:xlink="http://www.w3.org/1999/xlink" width="110.508ex" height="64.509ex" style="font-size: 15px; vertical-align: -31.671ex;" viewBox="0 -14138.5 47579.6 27774.7" role="img" focusable="false" xmlns="http://www.w3.org/2000/svg">
<defs>
<path stroke-width="1" id="E1-MJMAIN-28" d="M94 250Q94 319 104 381T127 488T164 576T202 643T244 695T277 729T302 750H315H319Q333 750 333 741Q333 738 316 720T275 667T226 581T184 443T167 250T184 58T225 -81T274 -167T316 -220T333 -241Q333 -250 318 -250H315H302L274 -226Q180 -141 137 -14T94 250Z"></path>
<path stroke-width="1" id="E1-MJMAIN-31" d="M213 578L200 573Q186 568 160 563T102 556H83V602H102Q149 604 189 617T245 641T273 663Q275 666 285 666Q294 666 302 660V361L303 61Q310 54 315 52T339 48T401 46H427V0H416Q395 3 257 3Q121 3 100 0H88V46H114Q136 46 152 46T177 47T193 50T201 52T207 57T213 61V578Z"></path>
<path stroke-width="1" id="E1-MJMAIN-30" d="M96 585Q152 666 249 666Q297 666 345 640T423 548Q460 465 460 320Q460 165 417 83Q397 41 362 16T301 -15T250 -22Q224 -22 198 -16T137 16T82 83Q39 165 39 320Q39 494 96 585ZM321 597Q291 629 250 629Q208 629 178 597Q153 571 145 525T137 333Q137 175 145 125T181 46Q209 16 250 16Q290 16 318 46Q347 76 354 130T362 333Q362 478 354 524T321 597Z"></path>
<path stroke-width="1" id="E1-MJMAIN-29" d="M60 749L64 750Q69 750 74 750H86L114 726Q208 641 251 514T294 250Q294 182 284 119T261 12T224 -76T186 -143T145 -194T113 -227T90 -246Q87 -249 86 -250H74Q66 -250 63 -250T58 -247T55 -238Q56 -237 66 -225Q221 -64 221 250T66 725Q56 737 55 738Q55 746 60 749Z"></path>
<path stroke-width="1" id="E1-MJMAINB-41" d="M296 0Q278 3 164 3Q58 3 49 0H40V62H92Q144 62 144 64Q388 682 397 689Q403 698 434 698Q463 698 471 689Q475 686 538 530T663 218L724 64Q724 62 776 62H828V0H817Q796 3 658 3Q509 3 485 0H472V62H517Q561 62 561 63L517 175H262L240 120Q218 65 217 64Q217 62 261 62H306V0H296ZM390 237L492 238L440 365Q390 491 388 491Q287 239 287 237H390Z"></path>
<path stroke-width="1" id="E1-MJMAINB-6C" d="M43 686L134 690Q225 694 226 694H232V62H301V0H292Q274 3 170 3Q67 3 49 0H40V62H109V332Q109 387 109 453T110 534Q110 593 108 605T94 620Q80 624 53 624H40V686H43Z"></path>
<path stroke-width="1" id="E1-MJMAINB-67" d="M50 300Q50 368 105 409T255 450Q328 450 376 426L388 420Q435 455 489 455Q517 455 533 441T554 414T558 389Q558 367 544 353T508 339Q484 339 471 354T458 387Q458 397 462 400Q464 401 461 400Q459 400 454 399Q429 392 427 390Q454 353 459 328Q461 315 461 300Q461 240 419 202Q364 149 248 149Q185 149 136 172Q129 158 129 148Q129 105 170 93Q176 91 263 91Q273 91 298 91T334 91T366 89T400 85T432 77T466 64Q544 22 544 -69Q544 -114 506 -145Q438 -201 287 -201Q149 -201 90 -161T30 -70Q30 -58 33 -47T42 -27T54 -13T69 -1T82 6T94 12T101 15Q66 57 66 106Q66 151 90 187L97 197L89 204Q50 243 50 300ZM485 403H492Q491 404 488 404L485 403V403ZM255 200Q279 200 295 206T319 219T331 242T335 268T336 300Q336 337 333 352T317 380Q298 399 255 399Q228 399 211 392T187 371T178 345T176 312V300V289Q176 235 194 219Q215 200 255 200ZM287 -150Q357 -150 400 -128T443 -71Q443 -65 442 -61T436 -50T420 -37T389 -27T339 -21L308 -20Q276 -20 253 -20Q190 -20 180 -20T156 -26Q130 -38 130 -69Q130 -105 173 -127T287 -150Z"></path>
<path stroke-width="1" id="E1-MJMAINB-6F" d="M287 -5Q228 -5 182 10T109 48T63 102T39 161T32 219Q32 272 50 314T94 382T154 423T214 446T265 452H279Q319 452 326 451Q428 439 485 376T542 221Q542 156 514 108T442 33Q384 -5 287 -5ZM399 230V250Q399 280 398 298T391 338T372 372T338 392T282 401Q241 401 212 380Q190 363 183 334T175 230Q175 202 175 189T177 153T183 118T195 91T215 68T245 56T287 50Q348 50 374 84Q388 101 393 132T399 230Z"></path>
<path stroke-width="1" id="E1-MJMAINB-72" d="M405 293T374 293T324 312T305 361Q305 378 312 394Q315 397 315 399Q305 399 294 394T266 375T238 329T222 249Q221 241 221 149V62H308V0H298Q280 3 161 3Q47 3 38 0H29V62H98V210V303Q98 353 96 363T83 376Q69 380 42 380H29V442H32L118 446Q204 450 205 450H210V414L211 378Q247 449 315 449H321Q384 449 413 422T442 360Q442 332 424 313Z"></path>
<path stroke-width="1" id="E1-MJMAINB-69" d="M72 610Q72 649 98 672T159 695Q193 693 217 670T241 610Q241 572 217 549T157 525Q120 525 96 548T72 610ZM46 442L136 446L226 450H232V62H294V0H286Q271 3 171 3Q67 3 49 0H40V62H109V209Q109 358 108 362Q103 380 55 380H43V442H46Z"></path>
<path stroke-width="1" id="E1-MJMAINB-74" d="M272 49Q320 49 320 136V145V177H382V143Q382 106 380 99Q374 62 349 36T285 -2L272 -5H247Q173 -5 134 27Q109 46 102 74T94 160Q94 171 94 199T95 245V382H21V433H25Q58 433 90 456Q121 479 140 523T162 621V635H224V444H363V382H224V239V207V149Q224 98 228 81T249 55Q261 49 272 49Z"></path>
<path stroke-width="1" id="E1-MJMAINB-68" d="M40 686L131 690Q222 694 223 694H229V533L230 372L238 381Q248 394 264 407T317 435T398 450Q428 450 448 447T491 434T529 402T551 346Q553 335 554 198V62H623V0H614Q596 3 489 3Q374 3 365 0H356V62H425V194V275Q425 348 416 373T371 399Q326 399 288 370T238 290Q236 281 235 171V62H304V0H295Q277 3 171 3Q64 3 46 0H37V62H106V332Q106 387 106 453T107 534Q107 593 105 605T91 620Q77 624 50 624H37V686H40Z"></path>
<path stroke-width="1" id="E1-MJMAINB-6D" d="M40 442Q217 450 218 450H224V365Q226 367 235 378T254 397T278 416T314 435T362 448Q376 450 400 450H406Q503 450 534 393Q545 376 545 370Q545 368 555 379Q611 450 716 450Q774 450 809 434Q850 414 861 379T873 276V213V198V62H942V0H933Q915 3 809 3Q702 3 684 0H675V62H744V194V275Q744 348 735 373T690 399Q645 399 607 370T557 290Q555 281 554 171V62H623V0H614Q596 3 489 3Q374 3 365 0H356V62H425V194V275Q425 348 416 373T371 399Q326 399 288 370T238 290Q236 281 235 171V62H304V0H295Q277 3 171 3Q64 3 46 0H37V62H106V210V303Q106 353 104 363T91 376Q77 380 50 380H37V442H40Z"></path>
<path stroke-width="1" id="E1-MJMAINB-3A" d="M74 359Q74 394 98 419T158 444Q200 444 222 417T245 358Q245 329 224 302T160 274Q116 274 95 301T74 359ZM74 85Q74 121 99 146T156 171Q200 171 222 143T245 85Q245 56 224 29T160 1Q118 1 96 27T74 85Z"></path>
<path stroke-width="1" id="E1-MJMAINB-44" d="M39 624V686H270H310H408Q500 686 545 680T638 649Q768 584 805 438Q817 388 817 338Q817 171 702 75Q628 17 515 2Q504 1 270 0H39V62H147V624H39ZM655 337Q655 370 655 390T650 442T639 494T616 540T580 580T526 607T451 623Q443 624 368 624H298V62H377H387H407Q445 62 472 65T540 83T606 129Q629 156 640 195T653 262T655 337Z"></path>
<path stroke-width="1" id="E1-MJMAINB-6A" d="M104 610Q104 649 130 672T191 695Q225 693 249 670T273 610Q273 572 249 549T189 525Q152 525 128 548T104 610ZM78 442L173 446L268 450H274V196Q274 -5 274 -37T269 -83Q256 -132 201 -166T71 -200Q10 -200 -30 -173T-71 -102Q-71 -70 -51 -51T-1 -31Q27 -31 48 -49T69 -100Q69 -121 53 -147H56Q66 -149 77 -149H80Q90 -149 100 -146T127 -125T149 -73Q151 -55 151 149V362Q150 364 148 366T145 370T142 373T138 375T133 377T124 378T113 379T97 380H75V442H78Z"></path>
<path stroke-width="1" id="E1-MJMAINB-6B" d="M32 686L123 690Q214 694 215 694H221V255L377 382H346V444H355Q370 441 476 441Q544 441 556 444H562V382H476L347 277L515 62H587V0H579Q564 3 476 3Q370 3 352 0H343V62H358L373 63L260 206L237 189L216 172V62H285V0H277Q259 3 157 3Q46 3 37 0H29V62H98V332Q98 387 98 453T99 534Q99 593 97 605T83 620Q69 624 42 624H29V686H32Z"></path>
<path stroke-width="1" id="E1-MJMAINB-73" d="M38 315Q38 339 45 360T70 404T127 440T223 453Q273 453 320 436L338 445L357 453H366Q380 453 383 447T386 403V387V355Q386 331 383 326T365 321H355H349Q333 321 329 324T324 341Q317 406 224 406H216Q123 406 123 353Q123 334 143 321T188 304T244 294T285 286Q305 281 325 273T373 237T412 172Q414 162 414 142Q414 -6 230 -6Q154 -6 117 22L68 -6H58Q44 -6 41 0T38 42V73Q38 85 38 101T37 122Q37 144 42 148T68 153H75Q87 153 91 151T97 147T103 132Q131 46 220 46H230Q257 46 265 47Q330 58 330 108Q330 127 316 142Q300 156 284 162Q271 168 212 178T122 202Q38 243 38 315Z"></path>
<path stroke-width="1" id="E1-MJMAINB-61" d="M64 349Q64 399 107 426T255 453Q346 453 402 423T473 341Q478 327 478 310T479 196V77Q493 63 529 62Q549 62 553 57T558 31Q558 9 552 5T514 0H497H481Q375 0 367 56L356 46Q300 -6 210 -6Q130 -6 81 30T32 121Q32 188 111 226T332 272H350V292Q350 313 348 327T337 361T306 391T248 402T194 399H189Q204 376 204 354Q204 327 187 306T134 284Q97 284 81 305T64 349ZM164 121Q164 89 186 67T238 45Q274 45 307 63T346 108L350 117V226H347Q248 218 206 189T164 121Z"></path>
<path stroke-width="1" id="E1-MJMAINB-49" d="M397 0Q370 3 218 3Q65 3 38 0H25V62H139V624H25V686H38Q65 683 218 683Q370 683 397 686H410V624H296V62H410V0H397Z"></path>
<path stroke-width="1" id="E1-MJMAINB-6E" d="M40 442Q217 450 218 450H224V407L225 365Q233 378 245 391T289 422T362 448Q374 450 398 450Q428 450 448 447T491 434T529 402T551 346Q553 335 554 198V62H623V0H614Q596 3 489 3Q374 3 365 0H356V62H425V194V275Q425 348 416 373T371 399Q326 399 288 370T238 290Q236 281 235 171V62H304V0H295Q277 3 171 3Q64 3 46 0H37V62H106V210V303Q106 353 104 363T91 376Q77 380 50 380H37V442H40Z"></path>
<path stroke-width="1" id="E1-MJMAINB-70" d="M32 442L123 446Q214 450 215 450H221V409Q222 409 229 413T251 423T284 436T328 446T382 450Q480 450 540 388T600 223Q600 128 539 61T361 -6H354Q292 -6 236 28L227 34V-132H296V-194H287Q269 -191 163 -191Q56 -191 38 -194H29V-132H98V113V284Q98 330 97 348T93 370T83 376Q69 380 42 380H29V442H32ZM457 224Q457 303 427 349T350 395Q282 395 235 352L227 345V104L233 97Q274 45 337 45Q383 45 420 86T457 224Z"></path>
<path stroke-width="1" id="E1-MJMAINB-75" d="M40 442L134 446Q228 450 229 450H235V273V165Q235 90 238 74T254 52Q268 46 304 46H319Q352 46 380 67T419 121L420 123Q424 135 425 199Q425 201 425 207Q425 233 425 249V316Q425 354 423 363T410 376Q396 380 369 380H356V442L554 450V267Q554 84 556 79Q561 62 610 62H623V31Q623 0 622 0Q603 0 527 -3T432 -6Q431 -6 431 25V56L420 45Q373 6 332 -1Q313 -6 281 -6Q208 -6 165 14T109 87L107 98L106 230Q106 358 104 366Q96 380 50 380H37V442H40Z"></path>
<path stroke-width="1" id="E1-MJMAIN-44" d="M130 622Q123 629 119 631T103 634T60 637H27V683H228Q399 682 419 682T461 676Q504 667 546 641T626 573T685 470T708 336Q708 210 634 116T442 3Q429 1 228 0H27V46H60Q102 47 111 49T130 61V622ZM593 338Q593 439 571 501T493 602Q439 637 355 637H322H294Q238 637 234 628Q231 624 231 344Q231 62 232 59Q233 49 248 48T339 46H350Q456 46 515 95Q561 133 577 191T593 338Z"></path>
<path stroke-width="1" id="E1-MJMAIN-69" d="M69 609Q69 637 87 653T131 669Q154 667 171 652T188 609Q188 579 171 564T129 549Q104 549 87 564T69 609ZM247 0Q232 3 143 3Q132 3 106 3T56 1L34 0H26V46H42Q70 46 91 49Q100 53 102 60T104 102V205V293Q104 345 102 359T88 378Q74 385 41 385H30V408Q30 431 32 431L42 432Q52 433 70 434T106 436Q123 437 142 438T171 441T182 442H185V62Q190 52 197 50T232 46H255V0H247Z"></path>
<path stroke-width="1" id="E1-MJMAIN-72" d="M36 46H50Q89 46 97 60V68Q97 77 97 91T98 122T98 161T98 203Q98 234 98 269T98 328L97 351Q94 370 83 376T38 385H20V408Q20 431 22 431L32 432Q42 433 60 434T96 436Q112 437 131 438T160 441T171 442H174V373Q213 441 271 441H277Q322 441 343 419T364 373Q364 352 351 337T313 322Q288 322 276 338T263 372Q263 381 265 388T270 400T273 405Q271 407 250 401Q234 393 226 386Q179 341 179 207V154Q179 141 179 127T179 101T180 81T180 66V61Q181 59 183 57T188 54T193 51T200 49T207 48T216 47T225 47T235 46T245 46H276V0H267Q249 3 140 3Q37 3 28 0H20V46H36Z"></path>
<path stroke-width="1" id="E1-MJMAIN-65" d="M28 218Q28 273 48 318T98 391T163 433T229 448Q282 448 320 430T378 380T406 316T415 245Q415 238 408 231H126V216Q126 68 226 36Q246 30 270 30Q312 30 342 62Q359 79 369 104L379 128Q382 131 395 131H398Q415 131 415 121Q415 117 412 108Q393 53 349 21T250 -11Q155 -11 92 58T28 218ZM333 275Q322 403 238 411H236Q228 411 220 410T195 402T166 381T143 340T127 274V267H333V275Z"></path>
<path stroke-width="1" id="E1-MJMAIN-63" d="M370 305T349 305T313 320T297 358Q297 381 312 396Q317 401 317 402T307 404Q281 408 258 408Q209 408 178 376Q131 329 131 219Q131 137 162 90Q203 29 272 29Q313 29 338 55T374 117Q376 125 379 127T395 129H409Q415 123 415 120Q415 116 411 104T395 71T366 33T318 2T249 -11Q163 -11 99 53T34 214Q34 318 99 383T250 448T370 421T404 357Q404 334 387 320Z"></path>
<path stroke-width="1" id="E1-MJMAIN-74" d="M27 422Q80 426 109 478T141 600V615H181V431H316V385H181V241Q182 116 182 100T189 68Q203 29 238 29Q282 29 292 100Q293 108 293 146V181H333V146V134Q333 57 291 17Q264 -10 221 -10Q187 -10 162 2T124 33T105 68T98 100Q97 107 97 248V385H18V422H27Z"></path>
<path stroke-width="1" id="E1-MJMAIN-64" d="M376 495Q376 511 376 535T377 568Q377 613 367 624T316 637H298V660Q298 683 300 683L310 684Q320 685 339 686T376 688Q393 689 413 690T443 693T454 694H457V390Q457 84 458 81Q461 61 472 55T517 46H535V0Q533 0 459 -5T380 -11H373V44L365 37Q307 -11 235 -11Q158 -11 96 50T34 215Q34 315 97 378T244 442Q319 442 376 393V495ZM373 342Q328 405 260 405Q211 405 173 369Q146 341 139 305T131 211Q131 155 138 120T173 59Q203 26 251 26Q322 26 373 103V342Z"></path>
<path stroke-width="1" id="E1-MJMAIN-67" d="M329 409Q373 453 429 453Q459 453 472 434T485 396Q485 382 476 371T449 360Q416 360 412 390Q410 404 415 411Q415 412 416 414V415Q388 412 363 393Q355 388 355 386Q355 385 359 381T368 369T379 351T388 325T392 292Q392 230 343 187T222 143Q172 143 123 171Q112 153 112 133Q112 98 138 81Q147 75 155 75T227 73Q311 72 335 67Q396 58 431 26Q470 -13 470 -72Q470 -139 392 -175Q332 -206 250 -206Q167 -206 107 -175Q29 -140 29 -75Q29 -39 50 -15T92 18L103 24Q67 55 67 108Q67 155 96 193Q52 237 52 292Q52 355 102 398T223 442Q274 442 318 416L329 409ZM299 343Q294 371 273 387T221 404Q192 404 171 388T145 343Q142 326 142 292Q142 248 149 227T179 192Q196 182 222 182Q244 182 260 189T283 207T294 227T299 242Q302 258 302 292T299 343ZM403 -75Q403 -50 389 -34T348 -11T299 -2T245 0H218Q151 0 138 -6Q118 -15 107 -34T95 -74Q95 -84 101 -97T122 -127T170 -155T250 -167Q319 -167 361 -139T403 -75Z"></path>
<path stroke-width="1" id="E1-MJMAIN-61" d="M137 305T115 305T78 320T63 359Q63 394 97 421T218 448Q291 448 336 416T396 340Q401 326 401 309T402 194V124Q402 76 407 58T428 40Q443 40 448 56T453 109V145H493V106Q492 66 490 59Q481 29 455 12T400 -6T353 12T329 54V58L327 55Q325 52 322 49T314 40T302 29T287 17T269 6T247 -2T221 -8T190 -11Q130 -11 82 20T34 107Q34 128 41 147T68 188T116 225T194 253T304 268H318V290Q318 324 312 340Q290 411 215 411Q197 411 181 410T156 406T148 403Q170 388 170 359Q170 334 154 320ZM126 106Q126 75 150 51T209 26Q247 26 276 49T315 109Q317 116 318 175Q318 233 317 233Q309 233 296 232T251 223T193 203T147 166T126 106Z"></path>
<path stroke-width="1" id="E1-MJMAIN-70" d="M36 -148H50Q89 -148 97 -134V-126Q97 -119 97 -107T97 -77T98 -38T98 6T98 55T98 106Q98 140 98 177T98 243T98 296T97 335T97 351Q94 370 83 376T38 385H20V408Q20 431 22 431L32 432Q42 433 61 434T98 436Q115 437 135 438T165 441T176 442H179V416L180 390L188 397Q247 441 326 441Q407 441 464 377T522 216Q522 115 457 52T310 -11Q242 -11 190 33L182 40V-45V-101Q182 -128 184 -134T195 -145Q216 -148 244 -148H260V-194H252L228 -193Q205 -192 178 -192T140 -191Q37 -191 28 -194H20V-148H36ZM424 218Q424 292 390 347T305 402Q234 402 182 337V98Q222 26 294 26Q345 26 384 80T424 218Z"></path>
<path stroke-width="1" id="E1-MJMAIN-68" d="M41 46H55Q94 46 102 60V68Q102 77 102 91T102 124T102 167T103 217T103 272T103 329Q103 366 103 407T103 482T102 542T102 586T102 603Q99 622 88 628T43 637H25V660Q25 683 27 683L37 684Q47 685 66 686T103 688Q120 689 140 690T170 693T181 694H184V367Q244 442 328 442Q451 442 463 329Q464 322 464 190V104Q464 66 466 59T477 49Q498 46 526 46H542V0H534L510 1Q487 2 460 2T422 3Q319 3 310 0H302V46H318Q379 46 379 62Q380 64 380 200Q379 335 378 343Q372 371 358 385T334 402T308 404Q263 404 229 370Q202 343 195 315T187 232V168V108Q187 78 188 68T191 55T200 49Q221 46 249 46H265V0H257L234 1Q210 2 183 2T145 3Q42 3 33 0H25V46H41Z"></path>
<path stroke-width="1" id="E1-MJMATHI-47" d="M50 252Q50 367 117 473T286 641T490 704Q580 704 633 653Q642 643 648 636T656 626L657 623Q660 623 684 649Q691 655 699 663T715 679T725 690L740 705H746Q760 705 760 698Q760 694 728 561Q692 422 692 421Q690 416 687 415T669 413H653Q647 419 647 422Q647 423 648 429T650 449T651 481Q651 552 619 605T510 659Q492 659 471 656T418 643T357 615T294 567T236 496T189 394T158 260Q156 242 156 221Q156 173 170 136T206 79T256 45T308 28T353 24Q407 24 452 47T514 106Q517 114 529 161T541 214Q541 222 528 224T468 227H431Q425 233 425 235T427 254Q431 267 437 273H454Q494 271 594 271Q634 271 659 271T695 272T707 272Q721 272 721 263Q721 261 719 249Q714 230 709 228Q706 227 694 227Q674 227 653 224Q646 221 643 215T629 164Q620 131 614 108Q589 6 586 3Q584 1 581 1Q571 1 553 21T530 52Q530 53 528 52T522 47Q448 -22 322 -22Q201 -22 126 55T50 252Z"></path>
<path stroke-width="1" id="E1-MJMAIN-3D" d="M56 347Q56 360 70 367H707Q722 359 722 347Q722 336 708 328L390 327H72Q56 332 56 347ZM56 153Q56 168 72 173H708Q722 163 722 153Q722 140 707 133H70Q56 140 56 153Z"></path>
<path stroke-width="1" id="E1-MJMATHI-56" d="M52 648Q52 670 65 683H76Q118 680 181 680Q299 680 320 683H330Q336 677 336 674T334 656Q329 641 325 637H304Q282 635 274 635Q245 630 242 620Q242 618 271 369T301 118L374 235Q447 352 520 471T595 594Q599 601 599 609Q599 633 555 637Q537 637 537 648Q537 649 539 661Q542 675 545 679T558 683Q560 683 570 683T604 682T668 681Q737 681 755 683H762Q769 676 769 672Q769 655 760 640Q757 637 743 637Q730 636 719 635T698 630T682 623T670 615T660 608T652 599T645 592L452 282Q272 -9 266 -16Q263 -18 259 -21L241 -22H234Q216 -22 216 -15Q213 -9 177 305Q139 623 138 626Q133 637 76 637H59Q52 642 52 648Z"></path>
<path stroke-width="1" id="E1-MJMAIN-2C" d="M78 35T78 60T94 103T137 121Q165 121 187 96T210 8Q210 -27 201 -60T180 -117T154 -158T130 -185T117 -194Q113 -194 104 -185T95 -172Q95 -168 106 -156T131 -126T157 -76T173 -3V9L172 8Q170 7 167 6T161 3T152 1T140 0Q113 0 96 17Z"></path>
<path stroke-width="1" id="E1-MJMATHI-45" d="M492 213Q472 213 472 226Q472 230 477 250T482 285Q482 316 461 323T364 330H312Q311 328 277 192T243 52Q243 48 254 48T334 46Q428 46 458 48T518 61Q567 77 599 117T670 248Q680 270 683 272Q690 274 698 274Q718 274 718 261Q613 7 608 2Q605 0 322 0H133Q31 0 31 11Q31 13 34 25Q38 41 42 43T65 46Q92 46 125 49Q139 52 144 61Q146 66 215 342T285 622Q285 629 281 629Q273 632 228 634H197Q191 640 191 642T193 659Q197 676 203 680H757Q764 676 764 669Q764 664 751 557T737 447Q735 440 717 440H705Q698 445 698 453L701 476Q704 500 704 528Q704 558 697 578T678 609T643 625T596 632T532 634H485Q397 633 392 631Q388 629 386 622Q385 619 355 499T324 377Q347 376 372 376H398Q464 376 489 391T534 472Q538 488 540 490T557 493Q562 493 565 493T570 492T572 491T574 487T577 483L544 351Q511 218 508 216Q505 213 492 213Z"></path>
<path stroke-width="1" id="E1-MJMATHI-57" d="M436 683Q450 683 486 682T553 680Q604 680 638 681T677 682Q695 682 695 674Q695 670 692 659Q687 641 683 639T661 637Q636 636 621 632T600 624T597 615Q597 603 613 377T629 138L631 141Q633 144 637 151T649 170T666 200T690 241T720 295T759 362Q863 546 877 572T892 604Q892 619 873 628T831 637Q817 637 817 647Q817 650 819 660Q823 676 825 679T839 682Q842 682 856 682T895 682T949 681Q1015 681 1034 683Q1048 683 1048 672Q1048 666 1045 655T1038 640T1028 637Q1006 637 988 631T958 617T939 600T927 584L923 578L754 282Q586 -14 585 -15Q579 -22 561 -22Q546 -22 542 -17Q539 -14 523 229T506 480L494 462Q472 425 366 239Q222 -13 220 -15T215 -19Q210 -22 197 -22Q178 -22 176 -15Q176 -12 154 304T131 622Q129 631 121 633T82 637H58Q51 644 51 648Q52 671 64 683H76Q118 680 176 680Q301 680 313 683H323Q329 677 329 674T327 656Q322 641 318 637H297Q236 634 232 620Q262 160 266 136L501 550L499 587Q496 629 489 632Q483 636 447 637Q428 637 422 639T416 648Q416 650 418 660Q419 664 420 669T421 676T424 680T428 682T436 683Z"></path>
<path stroke-width="1" id="E1-MJMAIN-77" d="M90 368Q84 378 76 380T40 385H18V431H24L43 430Q62 430 84 429T116 428Q206 428 221 431H229V385H215Q177 383 177 368Q177 367 221 239L265 113L339 328L333 345Q323 374 316 379Q308 384 278 385H258V431H264Q270 428 348 428Q439 428 454 431H461V385H452Q404 385 404 369Q404 366 418 324T449 234T481 143L496 100L537 219Q579 341 579 347Q579 363 564 373T530 385H522V431H529Q541 428 624 428Q692 428 698 431H703V385H697Q696 385 691 385T682 384Q635 377 619 334L559 161Q546 124 528 71Q508 12 503 1T487 -11H479Q460 -11 456 -4Q455 -3 407 133L361 267Q359 263 266 -4Q261 -11 243 -11H238Q225 -11 220 -3L90 368Z"></path>
<path stroke-width="1" id="E1-MJMAINB-4F" d="M64 339Q64 431 96 502T182 614T295 675T420 696Q469 696 481 695Q620 680 709 589T798 339Q798 173 697 82T432 -10Q262 -10 163 85T64 339ZM625 454Q618 502 600 538T562 593T515 624T469 639T431 642Q331 642 276 563Q232 493 232 353Q232 315 234 285T244 216T267 148T308 94T372 56Q405 46 432 46Q517 46 567 106T627 267Q631 299 631 353Q631 418 625 454Z"></path>
<path stroke-width="1" id="E1-MJMAIN-41" d="M255 0Q240 3 140 3Q48 3 39 0H32V46H47Q119 49 139 88Q140 91 192 245T295 553T348 708Q351 716 366 716H376Q396 715 400 709Q402 707 508 390L617 67Q624 54 636 51T687 46H717V0H708Q699 3 581 3Q458 3 437 0H427V46H440Q510 46 510 64Q510 66 486 138L462 209H229L209 150Q189 91 189 85Q189 72 209 59T259 46H264V0H255ZM447 255L345 557L244 256Q244 255 345 255H447Z"></path>
<path stroke-width="1" id="E1-MJMAIN-6C" d="M42 46H56Q95 46 103 60V68Q103 77 103 91T103 124T104 167T104 217T104 272T104 329Q104 366 104 407T104 482T104 542T103 586T103 603Q100 622 89 628T44 637H26V660Q26 683 28 683L38 684Q48 685 67 686T104 688Q121 689 141 690T171 693T182 694H185V379Q185 62 186 60Q190 52 198 49Q219 46 247 46H263V0H255L232 1Q209 2 183 2T145 3T107 3T57 1L34 0H26V46H42Z"></path>
<path stroke-width="1" id="E1-MJMAIN-73" d="M295 316Q295 356 268 385T190 414Q154 414 128 401Q98 382 98 349Q97 344 98 336T114 312T157 287Q175 282 201 278T245 269T277 256Q294 248 310 236T342 195T359 133Q359 71 321 31T198 -10H190Q138 -10 94 26L86 19L77 10Q71 4 65 -1L54 -11H46H42Q39 -11 33 -5V74V132Q33 153 35 157T45 162H54Q66 162 70 158T75 146T82 119T101 77Q136 26 198 26Q295 26 295 104Q295 133 277 151Q257 175 194 187T111 210Q75 227 54 256T33 318Q33 357 50 384T93 424T143 442T187 447H198Q238 447 268 432L283 424L292 431Q302 440 314 448H322H326Q329 448 335 442V310L329 304H301Q295 310 295 316Z"></path>
<path stroke-width="1" id="E1-MJMAIN-6F" d="M28 214Q28 309 93 378T250 448Q340 448 405 380T471 215Q471 120 407 55T250 -10Q153 -10 91 57T28 214ZM250 30Q372 30 372 193V225V250Q372 272 371 288T364 326T348 362T317 390T268 410Q263 411 252 411Q222 411 195 399Q152 377 139 338T126 246V226Q126 130 145 91Q177 30 250 30Z"></path>
<path stroke-width="1" id="E1-MJMAIN-66" d="M273 0Q255 3 146 3Q43 3 34 0H26V46H42Q70 46 91 49Q99 52 103 60Q104 62 104 224V385H33V431H104V497L105 564L107 574Q126 639 171 668T266 704Q267 704 275 704T289 705Q330 702 351 679T372 627Q372 604 358 590T321 576T284 590T270 627Q270 647 288 667H284Q280 668 273 668Q245 668 223 647T189 592Q183 572 182 497V431H293V385H185V225Q185 63 186 61T189 57T194 54T199 51T206 49T213 48T222 47T231 47T241 46T251 46H282V0H273Z"></path>
<path stroke-width="1" id="E1-MJMAIN-6D" d="M41 46H55Q94 46 102 60V68Q102 77 102 91T102 122T103 161T103 203Q103 234 103 269T102 328V351Q99 370 88 376T43 385H25V408Q25 431 27 431L37 432Q47 433 65 434T102 436Q119 437 138 438T167 441T178 442H181V402Q181 364 182 364T187 369T199 384T218 402T247 421T285 437Q305 442 336 442Q351 442 364 440T387 434T406 426T421 417T432 406T441 395T448 384T452 374T455 366L457 361L460 365Q463 369 466 373T475 384T488 397T503 410T523 422T546 432T572 439T603 442Q729 442 740 329Q741 322 741 190V104Q741 66 743 59T754 49Q775 46 803 46H819V0H811L788 1Q764 2 737 2T699 3Q596 3 587 0H579V46H595Q656 46 656 62Q657 64 657 200Q656 335 655 343Q649 371 635 385T611 402T585 404Q540 404 506 370Q479 343 472 315T464 232V168V108Q464 78 465 68T468 55T477 49Q498 46 526 46H542V0H534L510 1Q487 2 460 2T422 3Q319 3 310 0H302V46H318Q379 46 379 62Q380 64 380 200Q379 335 378 343Q372 371 358 385T334 402T308 404Q263 404 229 370Q202 343 195 315T187 232V168V108Q187 78 188 68T191 55T200 49Q221 46 249 46H265V0H257L234 1Q210 2 183 2T145 3Q42 3 33 0H25V46H41Z"></path>
<path stroke-width="1" id="E1-MJMAIN-75" d="M383 58Q327 -10 256 -10H249Q124 -10 105 89Q104 96 103 226Q102 335 102 348T96 369Q86 385 36 385H25V408Q25 431 27 431L38 432Q48 433 67 434T105 436Q122 437 142 438T172 441T184 442H187V261Q188 77 190 64Q193 49 204 40Q224 26 264 26Q290 26 311 35T343 58T363 90T375 120T379 144Q379 145 379 161T380 201T380 248V315Q380 361 370 372T320 385H302V431Q304 431 378 436T457 442H464V264Q464 84 465 81Q468 61 479 55T524 46H542V0Q540 0 467 -5T390 -11H383V58Z"></path>
<path stroke-width="1" id="E1-MJMAIN-76" d="M338 431Q344 429 422 429Q479 429 503 431H508V385H497Q439 381 423 345Q421 341 356 172T288 -2Q283 -11 263 -11Q244 -11 239 -2Q99 359 98 364Q93 378 82 381T43 385H19V431H25L33 430Q41 430 53 430T79 430T104 429T122 428Q217 428 232 431H240V385H226Q187 384 184 370Q184 366 235 234L286 102L377 341V349Q377 363 367 372T349 383T335 385H331V431H338Z"></path>
<path stroke-width="1" id="E1-MJMAIN-78" d="M201 0Q189 3 102 3Q26 3 17 0H11V46H25Q48 47 67 52T96 61T121 78T139 96T160 122T180 150L226 210L168 288Q159 301 149 315T133 336T122 351T113 363T107 370T100 376T94 379T88 381T80 383Q74 383 44 385H16V431H23Q59 429 126 429Q219 429 229 431H237V385Q201 381 201 369Q201 367 211 353T239 315T268 274L272 270L297 304Q329 345 329 358Q329 364 327 369T322 376T317 380T310 384L307 385H302V431H309Q324 428 408 428Q487 428 493 431H499V385H492Q443 385 411 368Q394 360 377 341T312 257L296 236L358 151Q424 61 429 57T446 50Q464 46 499 46H516V0H510H502Q494 1 482 1T457 2T432 2T414 3Q403 3 377 3T327 1L304 0H295V46H298Q309 46 320 51T331 63Q331 65 291 120L250 175Q249 174 219 133T185 88Q181 83 181 74Q181 63 188 55T206 46Q208 46 208 23V0H201Z"></path>
<path stroke-width="1" id="E1-MJMATHI-73" d="M131 289Q131 321 147 354T203 415T300 442Q362 442 390 415T419 355Q419 323 402 308T364 292Q351 292 340 300T328 326Q328 342 337 354T354 372T367 378Q368 378 368 379Q368 382 361 388T336 399T297 405Q249 405 227 379T204 326Q204 301 223 291T278 274T330 259Q396 230 396 163Q396 135 385 107T352 51T289 7T195 -10Q118 -10 86 19T53 87Q53 126 74 143T118 160Q133 160 146 151T160 120Q160 94 142 76T111 58Q109 57 108 57T107 55Q108 52 115 47T146 34T201 27Q237 27 263 38T301 66T318 97T323 122Q323 150 302 164T254 181T195 196T148 231Q131 256 131 289Z"></path>
<path stroke-width="1" id="E1-MJMAIN-79" d="M69 -66Q91 -66 104 -80T118 -116Q118 -134 109 -145T91 -160Q84 -163 97 -166Q104 -168 111 -168Q131 -168 148 -159T175 -138T197 -106T213 -75T225 -43L242 0L170 183Q150 233 125 297Q101 358 96 368T80 381Q79 382 78 382Q66 385 34 385H19V431H26L46 430Q65 430 88 429T122 428Q129 428 142 428T171 429T200 430T224 430L233 431H241V385H232Q183 385 185 366L286 112Q286 113 332 227L376 341V350Q376 365 366 373T348 383T334 385H331V431H337H344Q351 431 361 431T382 430T405 429T422 429Q477 429 503 431H508V385H497Q441 380 422 345Q420 343 378 235T289 9T227 -131Q180 -204 113 -204Q69 -204 44 -177T19 -116Q19 -89 35 -78T69 -66Z"></path>
<path stroke-width="1" id="E1-MJMATHI-76" d="M173 380Q173 405 154 405Q130 405 104 376T61 287Q60 286 59 284T58 281T56 279T53 278T49 278T41 278H27Q21 284 21 287Q21 294 29 316T53 368T97 419T160 441Q202 441 225 417T249 361Q249 344 246 335Q246 329 231 291T200 202T182 113Q182 86 187 69Q200 26 250 26Q287 26 319 60T369 139T398 222T409 277Q409 300 401 317T383 343T365 361T357 383Q357 405 376 424T417 443Q436 443 451 425T467 367Q467 340 455 284T418 159T347 40T241 -11Q177 -11 139 22Q102 54 102 117Q102 148 110 181T151 298Q173 362 173 380Z"></path>
<path stroke-width="1" id="E1-MJMATHI-69" d="M184 600Q184 624 203 642T247 661Q265 661 277 649T290 619Q290 596 270 577T226 557Q211 557 198 567T184 600ZM21 287Q21 295 30 318T54 369T98 420T158 442Q197 442 223 419T250 357Q250 340 236 301T196 196T154 83Q149 61 149 51Q149 26 166 26Q175 26 185 29T208 43T235 78T260 137Q263 149 265 151T282 153Q302 153 302 143Q302 135 293 112T268 61T223 11T161 -11Q129 -11 102 10T74 74Q74 91 79 106T122 220Q160 321 166 341T173 380Q173 404 156 404H154Q124 404 99 371T61 287Q60 286 59 284T58 281T56 279T53 278T49 278T41 278H27Q21 284 21 287Z"></path>
<path stroke-width="1" id="E1-MJMAIN-2208" d="M84 250Q84 372 166 450T360 539Q361 539 377 539T419 540T469 540H568Q583 532 583 520Q583 511 570 501L466 500Q355 499 329 494Q280 482 242 458T183 409T147 354T129 306T124 272V270H568Q583 262 583 250T568 230H124V228Q124 207 134 177T167 112T231 48T328 7Q355 1 466 0H570Q583 -10 583 -20Q583 -32 568 -40H471Q464 -40 446 -40T417 -41Q262 -41 172 45Q84 127 84 250Z"></path>
<path stroke-width="1" id="E1-MJMAIN-2216" d="M56 731Q56 740 62 745T75 750Q85 750 92 740Q96 733 270 255T444 -231Q444 -239 438 -244T424 -250Q414 -250 407 -240Q404 -236 230 242T56 731Z"></path>
<path stroke-width="1" id="E1-MJMAIN-7B" d="M434 -231Q434 -244 428 -250H410Q281 -250 230 -184Q225 -177 222 -172T217 -161T213 -148T211 -133T210 -111T209 -84T209 -47T209 0Q209 21 209 53Q208 142 204 153Q203 154 203 155Q189 191 153 211T82 231Q71 231 68 234T65 250T68 266T82 269Q116 269 152 289T203 345Q208 356 208 377T209 529V579Q209 634 215 656T244 698Q270 724 324 740Q361 748 377 749Q379 749 390 749T408 750H428Q434 744 434 732Q434 719 431 716Q429 713 415 713Q362 710 332 689T296 647Q291 634 291 499V417Q291 370 288 353T271 314Q240 271 184 255L170 250L184 245Q202 239 220 230T262 196T290 137Q291 131 291 1Q291 -134 296 -147Q306 -174 339 -192T415 -213Q429 -213 431 -216Q434 -219 434 -231Z"></path>
<path stroke-width="1" id="E1-MJMAIN-7D" d="M65 731Q65 745 68 747T88 750Q171 750 216 725T279 670Q288 649 289 635T291 501Q292 362 293 357Q306 312 345 291T417 269Q428 269 431 266T434 250T431 234T417 231Q380 231 345 210T298 157Q293 143 292 121T291 -28V-79Q291 -134 285 -156T256 -198Q202 -250 89 -250Q71 -250 68 -247T65 -230Q65 -224 65 -223T66 -218T69 -214T77 -213Q91 -213 108 -210T146 -200T183 -177T207 -139Q208 -134 209 3L210 139Q223 196 280 230Q315 247 330 250Q305 257 280 270Q225 304 212 352L210 362L209 498Q208 635 207 640Q195 680 154 696T77 713Q68 713 67 716T65 731Z"></path>
<path stroke-width="1" id="E1-MJMAIN-3A" d="M78 370Q78 394 95 412T138 430Q162 430 180 414T199 371Q199 346 182 328T139 310T96 327T78 370ZM78 60Q78 84 95 102T138 120Q162 120 180 104T199 61Q199 36 182 18T139 0T96 17T78 60Z"></path>
<path stroke-width="1" id="E1-MJMATHI-53" d="M308 24Q367 24 416 76T466 197Q466 260 414 284Q308 311 278 321T236 341Q176 383 176 462Q176 523 208 573T273 648Q302 673 343 688T407 704H418H425Q521 704 564 640Q565 640 577 653T603 682T623 704Q624 704 627 704T632 705Q645 705 645 698T617 577T585 459T569 456Q549 456 549 465Q549 471 550 475Q550 478 551 494T553 520Q553 554 544 579T526 616T501 641Q465 662 419 662Q362 662 313 616T263 510Q263 480 278 458T319 427Q323 425 389 408T456 390Q490 379 522 342T554 242Q554 216 546 186Q541 164 528 137T492 78T426 18T332 -20Q320 -22 298 -22Q199 -22 144 33L134 44L106 13Q83 -14 78 -18T65 -22Q52 -22 52 -14Q52 -11 110 221Q112 227 130 227H143Q149 221 149 216Q149 214 148 207T144 186T142 153Q144 114 160 87T203 47T255 29T308 24Z"></path>
<path stroke-width="1" id="E1-MJMAIN-2190" d="M944 261T944 250T929 230H165Q167 228 182 216T211 189T244 152T277 96T303 25Q308 7 308 0Q308 -11 288 -11Q281 -11 278 -11T272 -7T267 2T263 21Q245 94 195 151T73 236Q58 242 55 247Q55 254 59 257T73 264Q121 283 158 314T215 375T247 434T264 480L267 497Q269 503 270 505T275 509T288 511Q308 511 308 500Q308 493 303 475Q293 438 278 406T246 352T215 315T185 287T165 270H929Q944 261 944 250Z"></path>
<path stroke-width="1" id="E1-MJMAIN-32" d="M109 429Q82 429 66 447T50 491Q50 562 103 614T235 666Q326 666 387 610T449 465Q449 422 429 383T381 315T301 241Q265 210 201 149L142 93L218 92Q375 92 385 97Q392 99 409 186V189H449V186Q448 183 436 95T421 3V0H50V19V31Q50 38 56 46T86 81Q115 113 136 137Q145 147 170 174T204 211T233 244T261 278T284 308T305 340T320 369T333 401T340 431T343 464Q343 527 309 573T212 619Q179 619 154 602T119 569T109 550Q109 549 114 549Q132 549 151 535T170 489Q170 464 154 447T109 429Z"></path>
<path stroke-width="1" id="E1-MJMAIN-5B" d="M118 -250V750H255V710H158V-210H255V-250H118Z"></path>
<path stroke-width="1" id="E1-MJMAIN-5D" d="M22 710V750H159V-250H22V-210H119V710H22Z"></path>
<path stroke-width="1" id="E1-MJMAIN-33" d="M127 463Q100 463 85 480T69 524Q69 579 117 622T233 665Q268 665 277 664Q351 652 390 611T430 522Q430 470 396 421T302 350L299 348Q299 347 308 345T337 336T375 315Q457 262 457 175Q457 96 395 37T238 -22Q158 -22 100 21T42 130Q42 158 60 175T105 193Q133 193 151 175T169 130Q169 119 166 110T159 94T148 82T136 74T126 70T118 67L114 66Q165 21 238 21Q293 21 321 74Q338 107 338 175V195Q338 290 274 322Q259 328 213 329L171 330L168 332Q166 335 166 348Q166 366 174 366Q202 366 232 371Q266 376 294 413T322 525V533Q322 590 287 612Q265 626 240 626Q208 626 181 615T143 592T132 580H135Q138 579 143 578T153 573T165 566T175 555T183 540T186 520Q186 498 172 481T127 463Z"></path>
<path stroke-width="1" id="E1-MJMAINB-66" d="M308 0Q290 3 172 3Q58 3 49 0H40V62H109V382H42V444H109V503L110 562L112 572Q127 625 178 658T316 699Q318 699 330 699T348 700Q381 698 404 687T436 658T449 629T452 606Q452 576 432 557T383 537Q355 537 335 555T314 605Q314 635 328 649H325Q311 649 293 644T253 618T227 560Q226 555 226 498V444H340V382H232V62H318V0H308Z"></path>
<path stroke-width="1" id="E1-MJMAIN-2212" d="M84 237T84 250T98 270H679Q694 262 694 250T679 230H98Q84 237 84 250Z"></path>
<path stroke-width="1" id="E1-MJMAINB-64" d="M351 686L442 690Q533 694 534 694H540V389Q540 327 540 253T539 163Q539 97 541 83T555 66Q569 62 596 62H609V31Q609 0 608 0Q588 0 510 -3T412 -6Q411 -6 411 16V38L401 31Q337 -6 265 -6Q159 -6 99 58T38 224Q38 265 51 303T92 375T165 429T272 449Q359 449 417 412V507V555Q417 597 415 607T402 620Q388 624 361 624H348V686H351ZM411 350Q362 399 291 399Q278 399 256 392T218 371Q195 351 189 320T182 238V221Q182 179 183 159T191 115T212 74Q241 46 288 46Q358 46 404 100L411 109V350Z"></path>
<path stroke-width="1" id="E1-MJMAIN-34" d="M462 0Q444 3 333 3Q217 3 199 0H190V46H221Q241 46 248 46T265 48T279 53T286 61Q287 63 287 115V165H28V211L179 442Q332 674 334 675Q336 677 355 677H373L379 671V211H471V165H379V114Q379 73 379 66T385 54Q393 47 442 46H471V0H462ZM293 211V545L74 212L183 211H293Z"></path>
<path stroke-width="1" id="E1-MJMATHI-77" d="M580 385Q580 406 599 424T641 443Q659 443 674 425T690 368Q690 339 671 253Q656 197 644 161T609 80T554 12T482 -11Q438 -11 404 5T355 48Q354 47 352 44Q311 -11 252 -11Q226 -11 202 -5T155 14T118 53T104 116Q104 170 138 262T173 379Q173 380 173 381Q173 390 173 393T169 400T158 404H154Q131 404 112 385T82 344T65 302T57 280Q55 278 41 278H27Q21 284 21 287Q21 293 29 315T52 366T96 418T161 441Q204 441 227 416T250 358Q250 340 217 250T184 111Q184 65 205 46T258 26Q301 26 334 87L339 96V119Q339 122 339 128T340 136T341 143T342 152T345 165T348 182T354 206T362 238T373 281Q402 395 406 404Q419 431 449 431Q468 431 475 421T483 402Q483 389 454 274T422 142Q420 131 420 107V100Q420 85 423 71T442 42T487 26Q558 26 600 148Q609 171 620 213T632 273Q632 306 619 325T593 357T580 385Z"></path>
<path stroke-width="1" id="E1-MJMAIN-6E" d="M41 46H55Q94 46 102 60V68Q102 77 102 91T102 122T103 161T103 203Q103 234 103 269T102 328V351Q99 370 88 376T43 385H25V408Q25 431 27 431L37 432Q47 433 65 434T102 436Q119 437 138 438T167 441T178 442H181V402Q181 364 182 364T187 369T199 384T218 402T247 421T285 437Q305 442 336 442Q450 438 463 329Q464 322 464 190V104Q464 66 466 59T477 49Q498 46 526 46H542V0H534L510 1Q487 2 460 2T422 3Q319 3 310 0H302V46H318Q379 46 379 62Q380 64 380 200Q379 335 378 343Q372 371 358 385T334 402T308 404Q263 404 229 370Q202 343 195 315T187 232V168V108Q187 78 188 68T191 55T200 49Q221 46 249 46H265V0H257L234 1Q210 2 183 2T145 3Q42 3 33 0H25V46H41Z"></path>
<path stroke-width="1" id="E1-MJMAIN-221E" d="M55 217Q55 305 111 373T254 442Q342 442 419 381Q457 350 493 303L507 284L514 294Q618 442 747 442Q833 442 888 374T944 214Q944 128 889 59T743 -11Q657 -11 580 50Q542 81 506 128L492 147L485 137Q381 -11 252 -11Q166 -11 111 57T55 217ZM907 217Q907 285 869 341T761 397Q740 397 720 392T682 378T648 359T619 335T594 310T574 285T559 263T548 246L543 238L574 198Q605 158 622 138T664 94T714 61T765 51Q827 51 867 100T907 217ZM92 214Q92 145 131 89T239 33Q357 33 456 193L425 233Q364 312 334 337Q285 380 233 380Q171 380 132 331T92 214Z"></path>
<path stroke-width="1" id="E1-MJMAIN-35" d="M164 157Q164 133 148 117T109 101H102Q148 22 224 22Q294 22 326 82Q345 115 345 210Q345 313 318 349Q292 382 260 382H254Q176 382 136 314Q132 307 129 306T114 304Q97 304 95 310Q93 314 93 485V614Q93 664 98 664Q100 666 102 666Q103 666 123 658T178 642T253 634Q324 634 389 662Q397 666 402 666Q410 666 410 648V635Q328 538 205 538Q174 538 149 544L139 546V374Q158 388 169 396T205 412T256 420Q337 420 393 355T449 201Q449 109 385 44T229 -22Q148 -22 99 32T50 154Q50 178 61 192T84 210T107 214Q132 214 148 197T164 157Z"></path>
<path stroke-width="1" id="E1-MJMAINB-77" d="M624 444Q636 441 722 441Q797 441 800 444H805V382H741L593 11Q592 10 590 8T586 4T584 2T581 0T579 -2T575 -3T571 -3T567 -4T561 -4T553 -4H542Q525 -4 518 6T490 70Q474 110 463 137L415 257L367 137Q357 111 341 72Q320 17 313 7T289 -4H277Q259 -4 253 -2T238 11L90 382H25V444H32Q47 441 140 441Q243 441 261 444H270V382H222L310 164L382 342L366 382H303V444H310Q322 441 407 441Q508 441 523 444H531V382H506Q481 382 481 380Q482 376 529 259T577 142L674 382H617V444H624Z"></path>
<path stroke-width="1" id="E1-MJMAINB-65" d="M32 225Q32 332 102 392T272 452H283Q382 452 436 401Q494 343 494 243Q494 226 486 222T440 217Q431 217 394 217T327 218H175V209Q175 177 179 154T196 107T236 69T306 50Q312 49 323 49Q376 49 410 85Q421 99 427 111T434 127T442 133T463 135H468Q494 135 494 117Q494 110 489 97T468 66T431 32T373 5T292 -6Q181 -6 107 55T32 225ZM383 276Q377 346 348 374T280 402Q253 402 230 390T195 357Q179 331 176 279V266H383V276Z"></path>
<path stroke-width="1" id="E1-MJMAIN-2260" d="M166 -215T159 -215T147 -212T141 -204T139 -197Q139 -190 144 -183L306 133H70Q56 140 56 153Q56 168 72 173H327L406 327H72Q56 332 56 347Q56 360 70 367H426Q597 702 602 707Q605 716 618 716Q625 716 630 712T636 703T638 696Q638 692 471 367H707Q722 359 722 347Q722 336 708 328L451 327L371 173H708Q722 163 722 153Q722 140 707 133H351Q175 -210 170 -212Q166 -215 159 -215Z"></path>
<path stroke-width="1" id="E1-MJAMS-2205" d="M624 470Q624 468 639 446T668 382T683 291Q683 181 612 99T437 -1Q425 -2 387 -2T337 -1Q245 18 193 70L179 81L131 39Q96 8 89 3T75 -3Q55 -3 55 17Q55 24 61 30T111 73Q154 113 151 113Q151 114 140 130T115 177T95 241Q94 253 94 291T95 341Q112 431 173 495Q265 587 385 587Q410 587 437 581Q522 571 582 513L595 501L642 541Q689 586 695 586Q696 586 697 586T699 587Q706 587 713 583T720 568Q720 560 711 551T664 510Q651 499 642 490T628 475T624 470ZM564 477Q517 522 448 539Q428 546 375 546Q290 546 229 492T144 370Q133 332 133 279Q136 228 151 195Q157 179 168 160T184 141Q186 141 375 307T564 477ZM642 290Q642 318 637 343T625 386T611 416T598 436T593 444Q590 444 402 277T213 108Q213 104 231 89T293 55T392 37Q495 37 568 111T642 290Z"></path>
<path stroke-width="1" id="E1-MJMAIN-36" d="M42 313Q42 476 123 571T303 666Q372 666 402 630T432 550Q432 525 418 510T379 495Q356 495 341 509T326 548Q326 592 373 601Q351 623 311 626Q240 626 194 566Q147 500 147 364L148 360Q153 366 156 373Q197 433 263 433H267Q313 433 348 414Q372 400 396 374T435 317Q456 268 456 210V192Q456 169 451 149Q440 90 387 34T253 -22Q225 -22 199 -14T143 16T92 75T56 172T42 313ZM257 397Q227 397 205 380T171 335T154 278T148 216Q148 133 160 97T198 39Q222 21 251 21Q302 21 329 59Q342 77 347 104T352 209Q352 289 347 316T329 361Q302 397 257 397Z"></path>
<path stroke-width="1" id="E1-MJMATHI-6A" d="M297 596Q297 627 318 644T361 661Q378 661 389 651T403 623Q403 595 384 576T340 557Q322 557 310 567T297 596ZM288 376Q288 405 262 405Q240 405 220 393T185 362T161 325T144 293L137 279Q135 278 121 278H107Q101 284 101 286T105 299Q126 348 164 391T252 441Q253 441 260 441T272 442Q296 441 316 432Q341 418 354 401T367 348V332L318 133Q267 -67 264 -75Q246 -125 194 -164T75 -204Q25 -204 7 -183T-12 -137Q-12 -110 7 -91T53 -71Q70 -71 82 -81T95 -112Q95 -148 63 -167Q69 -168 77 -168Q111 -168 139 -140T182 -74L193 -32Q204 11 219 72T251 197T278 308T289 365Q289 372 288 376Z"></path>
<path stroke-width="1" id="E1-MJMAIN-37" d="M55 458Q56 460 72 567L88 674Q88 676 108 676H128V672Q128 662 143 655T195 646T364 644H485V605L417 512Q408 500 387 472T360 435T339 403T319 367T305 330T292 284T284 230T278 162T275 80Q275 66 275 52T274 28V19Q270 2 255 -10T221 -22Q210 -22 200 -19T179 0T168 40Q168 198 265 368Q285 400 349 489L395 552H302Q128 552 119 546Q113 543 108 522T98 479L95 458V455H55V458Z"></path>
<path stroke-width="1" id="E1-MJMAIN-222A" d="M591 598H592Q604 598 611 583V376Q611 345 611 296Q610 162 606 148Q605 146 605 145Q586 68 507 23T333 -22Q268 -22 209 -1T106 66T56 173Q55 180 55 384L56 585Q66 598 75 598Q85 598 95 585V378L96 172L98 162Q112 95 181 57T332 18Q415 18 487 58T570 175Q571 180 571 383V583Q579 598 591 598Z"></path>
<path stroke-width="1" id="E1-MJMAIN-38" d="M70 417T70 494T124 618T248 666Q319 666 374 624T429 515Q429 485 418 459T392 417T361 389T335 371T324 363L338 354Q352 344 366 334T382 323Q457 264 457 174Q457 95 399 37T249 -22Q159 -22 101 29T43 155Q43 263 172 335L154 348Q133 361 127 368Q70 417 70 494ZM286 386L292 390Q298 394 301 396T311 403T323 413T334 425T345 438T355 454T364 471T369 491T371 513Q371 556 342 586T275 624Q268 625 242 625Q201 625 165 599T128 534Q128 511 141 492T167 463T217 431Q224 426 228 424L286 386ZM250 21Q308 21 350 55T392 137Q392 154 387 169T375 194T353 216T330 234T301 253T274 270Q260 279 244 289T218 306L210 311Q204 311 181 294T133 239T107 157Q107 98 150 60T250 21Z"></path>
<path stroke-width="1" id="E1-MJMAIN-39" d="M352 287Q304 211 232 211Q154 211 104 270T44 396Q42 412 42 436V444Q42 537 111 606Q171 666 243 666Q245 666 249 666T257 665H261Q273 665 286 663T323 651T370 619T413 560Q456 472 456 334Q456 194 396 97Q361 41 312 10T208 -22Q147 -22 108 7T68 93T121 149Q143 149 158 135T173 96Q173 78 164 65T148 49T135 44L131 43Q131 41 138 37T164 27T206 22H212Q272 22 313 86Q352 142 352 280V287ZM244 248Q292 248 321 297T351 430Q351 508 343 542Q341 552 337 562T323 588T293 615T246 625Q208 625 181 598Q160 576 154 546T147 441Q147 358 152 329T172 282Q197 248 244 248Z"></path>
<path stroke-width="1" id="E1-MJMAIN-2B" d="M56 237T56 250T70 270H369V420L370 570Q380 583 389 583Q402 583 409 568V270H707Q722 262 722 250T707 230H409V-68Q401 -82 391 -82H389H387Q375 -82 369 -68V230H70Q56 237 56 250Z"></path>
<path stroke-width="1" id="E1-MJMAIN-3C" d="M694 -11T694 -19T688 -33T678 -40Q671 -40 524 29T234 166L90 235Q83 240 83 250Q83 261 91 266Q664 540 678 540Q681 540 687 534T694 519T687 505Q686 504 417 376L151 250L417 124Q686 -4 687 -5Q694 -11 694 -19Z"></path>
</defs>
<g stroke="currentColor" fill="currentColor" stroke-width="0" transform="matrix(1 0 0 -1 0 0)">
<g transform="translate(45799,0)">
<g id="mjx-eqn-10" transform="translate(0,-50)">
 <use xlink:href="#E1-MJMAIN-28"></use>
 <use xlink:href="#E1-MJMAIN-31" x="389" y="0"></use>
 <use xlink:href="#E1-MJMAIN-30" x="890" y="0"></use>
 <use xlink:href="#E1-MJMAIN-29" x="1390" y="0"></use>
</g>
</g>
<g transform="translate(167,0)">
<g transform="translate(-11,0)">
<g transform="translate(0,-50)">
<g transform="translate(275,0)">
<g transform="translate(167,0)">
<g transform="translate(-11,0)">
<g transform="translate(0,12819)">
 <use transform="scale(1.2)" xlink:href="#E1-MJMAINB-41" x="0" y="0"></use>
 <use transform="scale(1.2)" xlink:href="#E1-MJMAINB-6C" x="869" y="0"></use>
 <use transform="scale(1.2)" xlink:href="#E1-MJMAINB-67" x="1188" y="0"></use>
 <use transform="scale(1.2)" xlink:href="#E1-MJMAINB-6F" x="1764" y="0"></use>
 <use transform="scale(1.2)" xlink:href="#E1-MJMAINB-72" x="2339" y="0"></use>
 <use transform="scale(1.2)" xlink:href="#E1-MJMAINB-69" x="2814" y="0"></use>
 <use transform="scale(1.2)" xlink:href="#E1-MJMAINB-74" x="3134" y="0"></use>
 <use transform="scale(1.2)" xlink:href="#E1-MJMAINB-68" x="3581" y="0"></use>
 <use transform="scale(1.2)" xlink:href="#E1-MJMAINB-6D" x="4220" y="0"></use>
 <use transform="scale(1.2)" xlink:href="#E1-MJMAINB-3A" x="5457" y="0"></use>
 <use transform="scale(1.2)" xlink:href="#E1-MJMAINB-44" x="6054" y="0"></use>
 <use transform="scale(1.2)" xlink:href="#E1-MJMAINB-69" x="6937" y="0"></use>
 <use transform="scale(1.2)" xlink:href="#E1-MJMAINB-6A" x="7256" y="0"></use>
 <use transform="scale(1.2)" xlink:href="#E1-MJMAINB-6B" x="7608" y="0"></use>
 <use transform="scale(1.2)" xlink:href="#E1-MJMAINB-73" x="8215" y="0"></use>
 <use transform="scale(1.2)" xlink:href="#E1-MJMAINB-74" x="8670" y="0"></use>
 <use transform="scale(1.2)" xlink:href="#E1-MJMAINB-72" x="9117" y="0"></use>
 <use transform="scale(1.2)" xlink:href="#E1-MJMAINB-61" x="9592" y="0"></use>
</g>
<g transform="translate(0,9816)">
 <use transform="scale(1.2)" xlink:href="#E1-MJMAINB-49" x="0" y="0"></use>
 <use transform="scale(1.2)" xlink:href="#E1-MJMAINB-6E" x="436" y="0"></use>
 <use transform="scale(1.2)" xlink:href="#E1-MJMAINB-70" x="1076" y="0"></use>
 <use transform="scale(1.2)" xlink:href="#E1-MJMAINB-75" x="1715" y="0"></use>
 <use transform="scale(1.2)" xlink:href="#E1-MJMAINB-74" x="2355" y="0"></use>
 <use transform="scale(1.2)" xlink:href="#E1-MJMAINB-3A" x="3080" y="0"></use>
<g transform="translate(4079,0)">
 <use transform="scale(1.2)" xlink:href="#E1-MJMAIN-44" x="0" y="0"></use>
 <use transform="scale(1.2)" xlink:href="#E1-MJMAIN-69" x="764" y="0"></use>
 <use transform="scale(1.2)" xlink:href="#E1-MJMAIN-72" x="1043" y="0"></use>
 <use transform="scale(1.2)" xlink:href="#E1-MJMAIN-65" x="1435" y="0"></use>
 <use transform="scale(1.2)" xlink:href="#E1-MJMAIN-63" x="1880" y="0"></use>
 <use transform="scale(1.2)" xlink:href="#E1-MJMAIN-74" x="2324" y="0"></use>
 <use transform="scale(1.2)" xlink:href="#E1-MJMAIN-65" x="2714" y="0"></use>
 <use transform="scale(1.2)" xlink:href="#E1-MJMAIN-64" x="3158" y="0"></use>
 <use transform="scale(1.2)" xlink:href="#E1-MJMAIN-67" x="3992" y="0"></use>
 <use transform="scale(1.2)" xlink:href="#E1-MJMAIN-72" x="4493" y="0"></use>
 <use transform="scale(1.2)" xlink:href="#E1-MJMAIN-61" x="4885" y="0"></use>
 <use transform="scale(1.2)" xlink:href="#E1-MJMAIN-70" x="5386" y="0"></use>
 <use transform="scale(1.2)" xlink:href="#E1-MJMAIN-68" x="5942" y="0"></use>
</g>
 <use transform="scale(1.2)" xlink:href="#E1-MJMATHI-47" x="10176" y="0"></use>
 <use transform="scale(1.2)" xlink:href="#E1-MJMAIN-3D" x="11241" y="0"></use>
 <use transform="scale(1.2)" xlink:href="#E1-MJMAIN-28" x="12297" y="0"></use>
 <use transform="scale(1.2)" xlink:href="#E1-MJMATHI-56" x="12686" y="0"></use>
 <use transform="scale(1.2)" xlink:href="#E1-MJMAIN-2C" x="13456" y="0"></use>
 <use transform="scale(1.2)" xlink:href="#E1-MJMATHI-45" x="13901" y="0"></use>
 <use transform="scale(1.2)" xlink:href="#E1-MJMAIN-2C" x="14666" y="0"></use>
 <use transform="scale(1.2)" xlink:href="#E1-MJMATHI-57" x="15111" y="0"></use>
 <use transform="scale(1.2)" xlink:href="#E1-MJMAIN-29" x="16159" y="0"></use>
<g transform="translate(20192,0)">
 <use transform="scale(1.2)" xlink:href="#E1-MJMAIN-77" x="0" y="0"></use>
 <use transform="scale(1.2)" xlink:href="#E1-MJMAIN-69" x="722" y="0"></use>
 <use transform="scale(1.2)" xlink:href="#E1-MJMAIN-74" x="1001" y="0"></use>
 <use transform="scale(1.2)" xlink:href="#E1-MJMAIN-68" x="1390" y="0"></use>
 <use transform="scale(1.2)" xlink:href="#E1-MJMAIN-77" x="2224" y="0"></use>
 <use transform="scale(1.2)" xlink:href="#E1-MJMAIN-65" x="2947" y="0"></use>
 <use transform="scale(1.2)" xlink:href="#E1-MJMAIN-69" x="3391" y="0"></use>
 <use transform="scale(1.2)" xlink:href="#E1-MJMAIN-67" x="3670" y="0"></use>
 <use transform="scale(1.2)" xlink:href="#E1-MJMAIN-68" x="4170" y="0"></use>
 <use transform="scale(1.2)" xlink:href="#E1-MJMAIN-74" x="4727" y="0"></use>
</g>
</g>
<g transform="translate(0,6755)">
 <use transform="scale(1.2)" xlink:href="#E1-MJMAINB-4F" x="0" y="0"></use>
 <use transform="scale(1.2)" xlink:href="#E1-MJMAINB-75" x="864" y="0"></use>
 <use transform="scale(1.2)" xlink:href="#E1-MJMAINB-74" x="1503" y="0"></use>
 <use transform="scale(1.2)" xlink:href="#E1-MJMAINB-70" x="1951" y="0"></use>
 <use transform="scale(1.2)" xlink:href="#E1-MJMAINB-75" x="2591" y="0"></use>
 <use transform="scale(1.2)" xlink:href="#E1-MJMAINB-74" x="3230" y="0"></use>
 <use transform="scale(1.2)" xlink:href="#E1-MJMAINB-3A" x="3955" y="0"></use>
<g transform="translate(5130,0)">
 <use transform="scale(1.2)" xlink:href="#E1-MJMAIN-41" x="0" y="0"></use>
 <use transform="scale(1.2)" xlink:href="#E1-MJMAIN-6C" x="750" y="0"></use>
 <use transform="scale(1.2)" xlink:href="#E1-MJMAIN-6C" x="1029" y="0"></use>
 <use transform="scale(1.2)" xlink:href="#E1-MJMAIN-74" x="1585" y="0"></use>
 <use transform="scale(1.2)" xlink:href="#E1-MJMAIN-68" x="1974" y="0"></use>
 <use transform="scale(1.2)" xlink:href="#E1-MJMAIN-65" x="2531" y="0"></use>
 <use transform="scale(1.2)" xlink:href="#E1-MJMAIN-73" x="3253" y="0"></use>
 <use transform="scale(1.2)" xlink:href="#E1-MJMAIN-68" x="3648" y="0"></use>
 <use transform="scale(1.2)" xlink:href="#E1-MJMAIN-6F" x="4204" y="0"></use>
 <use transform="scale(1.2)" xlink:href="#E1-MJMAIN-72" x="4705" y="0"></use>
 <use transform="scale(1.2)" xlink:href="#E1-MJMAIN-74" x="5097" y="0"></use>
 <use transform="scale(1.2)" xlink:href="#E1-MJMAIN-65" x="5487" y="0"></use>
 <use transform="scale(1.2)" xlink:href="#E1-MJMAIN-73" x="5931" y="0"></use>
 <use transform="scale(1.2)" xlink:href="#E1-MJMAIN-74" x="6326" y="0"></use>
 <use transform="scale(1.2)" xlink:href="#E1-MJMAIN-70" x="6993" y="0"></use>
 <use transform="scale(1.2)" xlink:href="#E1-MJMAIN-61" x="7549" y="0"></use>
 <use transform="scale(1.2)" xlink:href="#E1-MJMAIN-74" x="8050" y="0"></use>
 <use transform="scale(1.2)" xlink:href="#E1-MJMAIN-68" x="8439" y="0"></use>
 <use transform="scale(1.2)" xlink:href="#E1-MJMAIN-73" x="8996" y="0"></use>
 <use transform="scale(1.2)" xlink:href="#E1-MJMAIN-66" x="9668" y="0"></use>
 <use transform="scale(1.2)" xlink:href="#E1-MJMAIN-72" x="10041" y="0"></use>
 <use transform="scale(1.2)" xlink:href="#E1-MJMAIN-6F" x="10433" y="0"></use>
 <use transform="scale(1.2)" xlink:href="#E1-MJMAIN-6D" x="10934" y="0"></use>
 <use transform="scale(1.2)" xlink:href="#E1-MJMAIN-74" x="12045" y="0"></use>
 <use transform="scale(1.2)" xlink:href="#E1-MJMAIN-68" x="12434" y="0"></use>
 <use transform="scale(1.2)" xlink:href="#E1-MJMAIN-65" x="12991" y="0"></use>
 <use transform="scale(1.2)" xlink:href="#E1-MJMAIN-73" x="13713" y="0"></use>
 <use transform="scale(1.2)" xlink:href="#E1-MJMAIN-6F" x="14108" y="0"></use>
 <use transform="scale(1.2)" xlink:href="#E1-MJMAIN-75" x="14608" y="0"></use>
 <use transform="scale(1.2)" xlink:href="#E1-MJMAIN-72" x="15165" y="0"></use>
 <use transform="scale(1.2)" xlink:href="#E1-MJMAIN-63" x="15557" y="0"></use>
 <use transform="scale(1.2)" xlink:href="#E1-MJMAIN-65" x="16002" y="0"></use>
 <use transform="scale(1.2)" xlink:href="#E1-MJMAIN-76" x="16724" y="0"></use>
 <use transform="scale(1.2)" xlink:href="#E1-MJMAIN-65" x="17252" y="0"></use>
 <use transform="scale(1.2)" xlink:href="#E1-MJMAIN-72" x="17697" y="0"></use>
 <use transform="scale(1.2)" xlink:href="#E1-MJMAIN-74" x="18089" y="0"></use>
 <use transform="scale(1.2)" xlink:href="#E1-MJMAIN-65" x="18479" y="0"></use>
 <use transform="scale(1.2)" xlink:href="#E1-MJMAIN-78" x="18923" y="0"></use>
</g>
 <use transform="scale(1.2)" xlink:href="#E1-MJMATHI-73" x="24005" y="0"></use>
<g transform="translate(29370,0)">
 <use transform="scale(1.2)" xlink:href="#E1-MJMAIN-74" x="277" y="0"></use>
 <use transform="scale(1.2)" xlink:href="#E1-MJMAIN-6F" x="667" y="0"></use>
 <use transform="scale(1.2)" xlink:href="#E1-MJMAIN-65" x="1445" y="0"></use>
 <use transform="scale(1.2)" xlink:href="#E1-MJMAIN-76" x="1890" y="0"></use>
 <use transform="scale(1.2)" xlink:href="#E1-MJMAIN-65" x="2418" y="0"></use>
 <use transform="scale(1.2)" xlink:href="#E1-MJMAIN-72" x="2863" y="0"></use>
 <use transform="scale(1.2)" xlink:href="#E1-MJMAIN-79" x="3255" y="0"></use>
 <use transform="scale(1.2)" xlink:href="#E1-MJMAIN-76" x="4061" y="0"></use>
 <use transform="scale(1.2)" xlink:href="#E1-MJMAIN-65" x="4590" y="0"></use>
 <use transform="scale(1.2)" xlink:href="#E1-MJMAIN-72" x="5034" y="0"></use>
 <use transform="scale(1.2)" xlink:href="#E1-MJMAIN-74" x="5427" y="0"></use>
 <use transform="scale(1.2)" xlink:href="#E1-MJMAIN-65" x="5816" y="0"></use>
 <use transform="scale(1.2)" xlink:href="#E1-MJMAIN-78" x="6261" y="0"></use>
</g>
<g transform="translate(37851,0)">
 <use transform="scale(1.2)" xlink:href="#E1-MJMATHI-76" x="0" y="0"></use>
 <use transform="scale(0.849)" xlink:href="#E1-MJMATHI-69" x="686" y="-213"></use>
</g>
 <use transform="scale(1.2)" xlink:href="#E1-MJMAIN-2208" x="32650" y="0"></use>
 <use transform="scale(1.2)" xlink:href="#E1-MJMATHI-56" x="33595" y="0"></use>
 <use transform="scale(1.2)" xlink:href="#E1-MJMAIN-2216" x="34587" y="0"></use>
<g transform="translate(42371,0)">
 <use transform="scale(1.2)" xlink:href="#E1-MJMAIN-7B" x="0" y="0"></use>
 <use transform="scale(1.2)" xlink:href="#E1-MJMATHI-73" x="500" y="0"></use>
 <use transform="scale(1.2)" xlink:href="#E1-MJMAIN-7D" x="970" y="0"></use>
</g>
</g>
<g transform="translate(0,3694)">
 <use transform="scale(1.2)" xlink:href="#E1-MJMAIN-31" x="0" y="0"></use>
 <use transform="scale(1.2)" xlink:href="#E1-MJMAIN-3A" x="778" y="0"></use>
 <use transform="scale(1.2)" xlink:href="#E1-MJMATHI-53" x="1334" y="0"></use>
 <use transform="scale(1.2)" xlink:href="#E1-MJMAIN-2190" x="2257" y="0"></use>
<g transform="translate(4243,0)">
 <use transform="scale(1.2)" xlink:href="#E1-MJMAIN-7B" x="0" y="0"></use>
 <use transform="scale(1.2)" xlink:href="#E1-MJMATHI-73" x="500" y="0"></use>
 <use transform="scale(1.2)" xlink:href="#E1-MJMAIN-7D" x="970" y="0"></use>
</g>
</g>
<g transform="translate(0,2133)">
 <use transform="scale(1.2)" xlink:href="#E1-MJMAIN-32" x="0" y="0"></use>
 <use transform="scale(1.2)" xlink:href="#E1-MJMAIN-3A" x="778" y="0"></use>
<g transform="translate(1601,0)">
 <use transform="scale(1.2)" xlink:href="#E1-MJMAIN-64" x="0" y="0"></use>
 <use transform="scale(1.2)" xlink:href="#E1-MJMAIN-69" x="556" y="0"></use>
 <use transform="scale(1.2)" xlink:href="#E1-MJMAIN-73" x="835" y="0"></use>
 <use transform="scale(1.2)" xlink:href="#E1-MJMAIN-74" x="1229" y="0"></use>
</g>
 <use transform="scale(1.2)" xlink:href="#E1-MJMAIN-5B" x="2953" y="0"></use>
 <use transform="scale(1.2)" xlink:href="#E1-MJMATHI-73" x="3232" y="0"></use>
 <use transform="scale(1.2)" xlink:href="#E1-MJMAIN-2C" x="3701" y="0"></use>
 <use transform="scale(1.2)" xlink:href="#E1-MJMATHI-73" x="4146" y="0"></use>
 <use transform="scale(1.2)" xlink:href="#E1-MJMAIN-5D" x="4616" y="0"></use>
 <use transform="scale(1.2)" xlink:href="#E1-MJMAIN-2190" x="5172" y="0"></use>
 <use transform="scale(1.2)" xlink:href="#E1-MJMAIN-30" x="6450" y="0"></use>
</g>
<g transform="translate(0,572)">
 <use transform="scale(1.2)" xlink:href="#E1-MJMAIN-33" x="0" y="0"></use>
 <use transform="scale(1.2)" xlink:href="#E1-MJMAIN-3A" x="778" y="0"></use>
<g transform="translate(1601,0)">
 <use transform="scale(1.2)" xlink:href="#E1-MJMAINB-66" x="0" y="0"></use>
 <use transform="scale(1.2)" xlink:href="#E1-MJMAINB-6F" x="453" y="0"></use>
 <use transform="scale(1.2)" xlink:href="#E1-MJMAINB-72" x="1029" y="0"></use>
</g>
<g transform="translate(3738,0)">
 <use transform="scale(1.2)" xlink:href="#E1-MJMATHI-76" x="0" y="0"></use>
 <use transform="scale(0.849)" xlink:href="#E1-MJMATHI-69" x="686" y="-213"></use>
</g>
 <use transform="scale(1.2)" xlink:href="#E1-MJMAIN-2208" x="4223" y="0"></use>
 <use transform="scale(1.2)" xlink:href="#E1-MJMATHI-56" x="5168" y="0"></use>
 <use transform="scale(1.2)" xlink:href="#E1-MJMAIN-2212" x="6160" y="0"></use>
<g transform="translate(8593,0)">
 <use transform="scale(1.2)" xlink:href="#E1-MJMAIN-7B" x="0" y="0"></use>
 <use transform="scale(1.2)" xlink:href="#E1-MJMATHI-73" x="500" y="0"></use>
 <use transform="scale(1.2)" xlink:href="#E1-MJMAIN-7D" x="970" y="0"></use>
</g>
<g transform="translate(10891,0)">
 <use transform="scale(1.2)" xlink:href="#E1-MJMAINB-64" x="0" y="0"></use>
 <use transform="scale(1.2)" xlink:href="#E1-MJMAINB-6F" x="639" y="0"></use>
</g>
</g>
<g transform="translate(0,-990)">
 <use transform="scale(1.2)" xlink:href="#E1-MJMAIN-34" x="0" y="0"></use>
 <use transform="scale(1.2)" xlink:href="#E1-MJMAIN-3A" x="778" y="0"></use>
<g transform="translate(2934,0)">
 <use transform="scale(1.2)" xlink:href="#E1-MJMAIN-64" x="0" y="0"></use>
 <use transform="scale(1.2)" xlink:href="#E1-MJMAIN-69" x="556" y="0"></use>
 <use transform="scale(1.2)" xlink:href="#E1-MJMAIN-73" x="835" y="0"></use>
 <use transform="scale(1.2)" xlink:href="#E1-MJMAIN-74" x="1229" y="0"></use>
</g>
 <use transform="scale(1.2)" xlink:href="#E1-MJMAIN-5B" x="4064" y="0"></use>
 <use transform="scale(1.2)" xlink:href="#E1-MJMATHI-73" x="4343" y="0"></use>
 <use transform="scale(1.2)" xlink:href="#E1-MJMAIN-2C" x="4812" y="0"></use>
<g transform="translate(6309,0)">
 <use transform="scale(1.2)" xlink:href="#E1-MJMATHI-76" x="0" y="0"></use>
 <use transform="scale(0.849)" xlink:href="#E1-MJMATHI-69" x="686" y="-213"></use>
</g>
 <use transform="scale(1.2)" xlink:href="#E1-MJMAIN-5D" x="6087" y="0"></use>
 <use transform="scale(1.2)" xlink:href="#E1-MJMAIN-2190" x="6643" y="0"></use>
 <use transform="scale(1.2)" xlink:href="#E1-MJMATHI-77" x="7922" y="0"></use>
 <use transform="scale(1.2)" xlink:href="#E1-MJMAIN-28" x="8638" y="0"></use>
 <use transform="scale(1.2)" xlink:href="#E1-MJMATHI-73" x="9028" y="0"></use>
 <use transform="scale(1.2)" xlink:href="#E1-MJMAIN-2C" x="9497" y="0"></use>
<g transform="translate(11931,0)">
 <use transform="scale(1.2)" xlink:href="#E1-MJMATHI-76" x="0" y="0"></use>
 <use transform="scale(0.849)" xlink:href="#E1-MJMATHI-69" x="686" y="-213"></use>
</g>
 <use transform="scale(1.2)" xlink:href="#E1-MJMAIN-29" x="10772" y="0"></use>
</g>
<g transform="translate(0,-2551)">
 <use transform="scale(1.2)" xlink:href="#E1-MJMAIN-28" x="2083" y="0"></use>
<g transform="translate(2967,0)">
 <use transform="scale(1.2)" xlink:href="#E1-MJMAIN-77" x="0" y="0"></use>
 <use transform="scale(1.2)" xlink:href="#E1-MJMAIN-68" x="722" y="0"></use>
 <use transform="scale(1.2)" xlink:href="#E1-MJMAIN-65" x="1279" y="0"></use>
 <use transform="scale(1.2)" xlink:href="#E1-MJMAIN-6E" x="1723" y="0"></use>
</g>
<g transform="translate(6036,0)">
 <use transform="scale(1.2)" xlink:href="#E1-MJMATHI-76" x="0" y="0"></use>
 <use transform="scale(0.849)" xlink:href="#E1-MJMATHI-69" x="686" y="-213"></use>
</g>
<g transform="translate(7365,0)">
 <use transform="scale(1.2)" xlink:href="#E1-MJMAIN-6E" x="0" y="0"></use>
 <use transform="scale(1.2)" xlink:href="#E1-MJMAIN-6F" x="556" y="0"></use>
 <use transform="scale(1.2)" xlink:href="#E1-MJMAIN-74" x="1057" y="0"></use>
 <use transform="scale(1.2)" xlink:href="#E1-MJMAIN-66" x="1724" y="0"></use>
 <use transform="scale(1.2)" xlink:href="#E1-MJMAIN-6F" x="2096" y="0"></use>
 <use transform="scale(1.2)" xlink:href="#E1-MJMAIN-75" x="2597" y="0"></use>
 <use transform="scale(1.2)" xlink:href="#E1-MJMAIN-6E" x="3153" y="0"></use>
 <use transform="scale(1.2)" xlink:href="#E1-MJMAIN-64" x="3710" y="0"></use>
</g>
 <use transform="scale(1.2)" xlink:href="#E1-MJMAIN-2C" x="10404" y="0"></use>
<g transform="translate(13020,0)">
 <use transform="scale(1.2)" xlink:href="#E1-MJMAIN-64" x="0" y="0"></use>
 <use transform="scale(1.2)" xlink:href="#E1-MJMAIN-69" x="556" y="0"></use>
 <use transform="scale(1.2)" xlink:href="#E1-MJMAIN-73" x="835" y="0"></use>
 <use transform="scale(1.2)" xlink:href="#E1-MJMAIN-74" x="1229" y="0"></use>
</g>
 <use transform="scale(1.2)" xlink:href="#E1-MJMAIN-5B" x="12469" y="0"></use>
 <use transform="scale(1.2)" xlink:href="#E1-MJMATHI-73" x="12747" y="0"></use>
 <use transform="scale(1.2)" xlink:href="#E1-MJMAIN-2C" x="13217" y="0"></use>
<g transform="translate(16394,0)">
 <use transform="scale(1.2)" xlink:href="#E1-MJMATHI-76" x="0" y="0"></use>
 <use transform="scale(0.849)" xlink:href="#E1-MJMATHI-69" x="686" y="-213"></use>
</g>
 <use transform="scale(1.2)" xlink:href="#E1-MJMAIN-5D" x="14492" y="0"></use>
 <use transform="scale(1.2)" xlink:href="#E1-MJMAIN-2190" x="15048" y="0"></use>
 <use transform="scale(1.2)" xlink:href="#E1-MJMAIN-221E" x="16326" y="0"></use>
 <use transform="scale(1.2)" xlink:href="#E1-MJMAIN-29" x="17327" y="0"></use>
</g>
<g transform="translate(0,-4112)">
 <use transform="scale(1.2)" xlink:href="#E1-MJMAIN-35" x="0" y="0"></use>
 <use transform="scale(1.2)" xlink:href="#E1-MJMAIN-3A" x="778" y="0"></use>
<g transform="translate(1601,0)">
 <use transform="scale(1.2)" xlink:href="#E1-MJMAINB-77" x="0" y="0"></use>
 <use transform="scale(1.2)" xlink:href="#E1-MJMAINB-68" x="831" y="0"></use>
 <use transform="scale(1.2)" xlink:href="#E1-MJMAINB-69" x="1471" y="0"></use>
 <use transform="scale(1.2)" xlink:href="#E1-MJMAINB-6C" x="1790" y="0"></use>
 <use transform="scale(1.2)" xlink:href="#E1-MJMAINB-65" x="2110" y="0"></use>
</g>
 <use transform="scale(1.2)" xlink:href="#E1-MJMATHI-56" x="4249" y="0"></use>
 <use transform="scale(1.2)" xlink:href="#E1-MJMAIN-2212" x="5241" y="0"></use>
 <use transform="scale(1.2)" xlink:href="#E1-MJMATHI-53" x="6242" y="0"></use>
 <use transform="scale(1.2)" xlink:href="#E1-MJMAIN-2260" x="7165" y="0"></use>
 <use transform="scale(1.2)" xlink:href="#E1-MJAMS-2205" x="8221" y="0"></use>
<g transform="translate(11133,0)">
 <use transform="scale(1.2)" xlink:href="#E1-MJMAINB-64" x="0" y="0"></use>
 <use transform="scale(1.2)" xlink:href="#E1-MJMAINB-6F" x="639" y="0"></use>
</g>
</g>
<g transform="translate(0,-5631)">
 <use transform="scale(1.2)" xlink:href="#E1-MJMAIN-36" x="0" y="0"></use>
 <use transform="scale(1.2)" xlink:href="#E1-MJMAIN-3A" x="778" y="0"></use>
<g transform="translate(3268,0)">
 <use transform="scale(1.2)" xlink:href="#E1-MJMAIN-66" x="0" y="0"></use>
 <use transform="scale(1.2)" xlink:href="#E1-MJMAIN-69" x="372" y="0"></use>
 <use transform="scale(1.2)" xlink:href="#E1-MJMAIN-6E" x="651" y="0"></use>
 <use transform="scale(1.2)" xlink:href="#E1-MJMAIN-64" x="1207" y="0"></use>
</g>
<g transform="translate(5918,0)">
 <use transform="scale(1.2)" xlink:href="#E1-MJMAIN-6D"></use>
 <use transform="scale(1.2)" xlink:href="#E1-MJMAIN-69" x="833" y="0"></use>
 <use transform="scale(1.2)" xlink:href="#E1-MJMAIN-6E" x="1112" y="0"></use>
<g transform="translate(0,-782)">
 <use transform="scale(0.849)" xlink:href="#E1-MJMATHI-76" x="0" y="0"></use>
 <use transform="scale(0.689)" xlink:href="#E1-MJMATHI-6A" x="598" y="-238"></use>
 <use transform="scale(0.849)" xlink:href="#E1-MJMAIN-2208" x="920" y="0"></use>
 <use transform="scale(0.849)" xlink:href="#E1-MJMATHI-56" x="1587" y="0"></use>
</g>
</g>
<g transform="translate(8287,0)">
 <use transform="scale(1.2)" xlink:href="#E1-MJMAIN-64" x="0" y="0"></use>
 <use transform="scale(1.2)" xlink:href="#E1-MJMAIN-69" x="556" y="0"></use>
 <use transform="scale(1.2)" xlink:href="#E1-MJMAIN-73" x="835" y="0"></use>
 <use transform="scale(1.2)" xlink:href="#E1-MJMAIN-74" x="1229" y="0"></use>
</g>
 <use transform="scale(1.2)" xlink:href="#E1-MJMAIN-5B" x="8524" y="0"></use>
 <use transform="scale(1.2)" xlink:href="#E1-MJMATHI-73" x="8803" y="0"></use>
 <use transform="scale(1.2)" xlink:href="#E1-MJMAIN-2C" x="9272" y="0"></use>
<g transform="translate(11661,0)">
 <use transform="scale(1.2)" xlink:href="#E1-MJMATHI-76" x="0" y="0"></use>
 <use transform="scale(0.849)" xlink:href="#E1-MJMATHI-69" x="686" y="-213"></use>
</g>
 <use transform="scale(1.2)" xlink:href="#E1-MJMAIN-5D" x="10547" y="0"></use>
<g transform="translate(13325,0)">
 <use transform="scale(1.2)" xlink:href="#E1-MJMAIN-66" x="0" y="0"></use>
 <use transform="scale(1.2)" xlink:href="#E1-MJMAIN-72" x="372" y="0"></use>
 <use transform="scale(1.2)" xlink:href="#E1-MJMAIN-6F" x="765" y="0"></use>
 <use transform="scale(1.2)" xlink:href="#E1-MJMAIN-6D" x="1265" y="0"></use>
 <use transform="scale(1.2)" xlink:href="#E1-MJMAIN-74" x="2376" y="0"></use>
 <use transform="scale(1.2)" xlink:href="#E1-MJMAIN-68" x="2766" y="0"></use>
 <use transform="scale(1.2)" xlink:href="#E1-MJMAIN-65" x="3322" y="0"></use>
 <use transform="scale(1.2)" xlink:href="#E1-MJMAIN-73" x="4045" y="0"></use>
 <use transform="scale(1.2)" xlink:href="#E1-MJMAIN-65" x="4439" y="0"></use>
 <use transform="scale(1.2)" xlink:href="#E1-MJMAIN-74" x="4884" y="0"></use>
</g>
 <use transform="scale(1.2)" xlink:href="#E1-MJMATHI-56" x="16655" y="0"></use>
 <use transform="scale(1.2)" xlink:href="#E1-MJMAIN-2212" x="17647" y="0"></use>
 <use transform="scale(1.2)" xlink:href="#E1-MJMATHI-53" x="18647" y="0"></use>
</g>
<g transform="translate(0,-8098)">
 <use transform="scale(1.2)" xlink:href="#E1-MJMAIN-37" x="0" y="0"></use>
 <use transform="scale(1.2)" xlink:href="#E1-MJMAIN-3A" x="778" y="0"></use>
 <use transform="scale(1.2)" xlink:href="#E1-MJMATHI-53" x="2723" y="0"></use>
 <use transform="scale(1.2)" xlink:href="#E1-MJMAIN-2190" x="3646" y="0"></use>
 <use transform="scale(1.2)" xlink:href="#E1-MJMATHI-53" x="4924" y="0"></use>
 <use transform="scale(1.2)" xlink:href="#E1-MJMAIN-222A" x="5792" y="0"></use>
<g transform="translate(8018,0)">
 <use transform="scale(1.2)" xlink:href="#E1-MJMAIN-7B"></use>
<g transform="translate(600,0)">
 <use transform="scale(1.2)" xlink:href="#E1-MJMATHI-76" x="0" y="0"></use>
 <use transform="scale(0.849)" xlink:href="#E1-MJMATHI-6A" x="686" y="-213"></use>
</g>
 <use transform="scale(1.2)" xlink:href="#E1-MJMAIN-7D" x="1377" y="0"></use>
</g>
</g>
<g transform="translate(0,-9712)">
 <use transform="scale(1.2)" xlink:href="#E1-MJMAIN-38" x="0" y="0"></use>
 <use transform="scale(1.2)" xlink:href="#E1-MJMAIN-3A" x="778" y="0"></use>
<g transform="translate(3268,0)">
 <use transform="scale(1.2)" xlink:href="#E1-MJMAINB-66" x="0" y="0"></use>
 <use transform="scale(1.2)" xlink:href="#E1-MJMAINB-6F" x="453" y="0"></use>
 <use transform="scale(1.2)" xlink:href="#E1-MJMAINB-72" x="1029" y="0"></use>
</g>
<g transform="translate(5405,0)">
 <use transform="scale(1.2)" xlink:href="#E1-MJMATHI-76" x="0" y="0"></use>
 <use transform="scale(0.849)" xlink:href="#E1-MJMATHI-69" x="686" y="-213"></use>
</g>
 <use transform="scale(1.2)" xlink:href="#E1-MJMAIN-2208" x="5612" y="0"></use>
 <use transform="scale(1.2)" xlink:href="#E1-MJMATHI-56" x="6557" y="0"></use>
 <use transform="scale(1.2)" xlink:href="#E1-MJMAIN-2212" x="7549" y="0"></use>
 <use transform="scale(1.2)" xlink:href="#E1-MJMATHI-53" x="8550" y="0"></use>
<g transform="translate(11367,0)">
 <use transform="scale(1.2)" xlink:href="#E1-MJMAINB-64" x="0" y="0"></use>
 <use transform="scale(1.2)" xlink:href="#E1-MJMAINB-6F" x="639" y="0"></use>
</g>
</g>
<g transform="translate(0,-11212)">
 <use transform="scale(1.2)" xlink:href="#E1-MJMAIN-39" x="0" y="0"></use>
 <use transform="scale(1.2)" xlink:href="#E1-MJMAIN-3A" x="778" y="0"></use>
<g transform="translate(4768,0)">
 <use transform="scale(1.2)" xlink:href="#E1-MJMAINB-69" x="0" y="0"></use>
 <use transform="scale(1.2)" xlink:href="#E1-MJMAINB-66" x="319" y="0"></use>
</g>
<g transform="translate(6029,0)">
 <use transform="scale(1.2)" xlink:href="#E1-MJMAIN-64" x="0" y="0"></use>
 <use transform="scale(1.2)" xlink:href="#E1-MJMAIN-69" x="556" y="0"></use>
 <use transform="scale(1.2)" xlink:href="#E1-MJMAIN-73" x="835" y="0"></use>
 <use transform="scale(1.2)" xlink:href="#E1-MJMAIN-74" x="1229" y="0"></use>
</g>
 <use transform="scale(1.2)" xlink:href="#E1-MJMAIN-5B" x="6643" y="0"></use>
 <use transform="scale(1.2)" xlink:href="#E1-MJMATHI-73" x="6921" y="0"></use>
 <use transform="scale(1.2)" xlink:href="#E1-MJMAIN-2C" x="7391" y="0"></use>
<g transform="translate(9403,0)">
 <use transform="scale(1.2)" xlink:href="#E1-MJMATHI-76" x="0" y="0"></use>
 <use transform="scale(0.849)" xlink:href="#E1-MJMATHI-6A" x="686" y="-213"></use>
</g>
 <use transform="scale(1.2)" xlink:href="#E1-MJMAIN-5D" x="8713" y="0"></use>
 <use transform="scale(1.2)" xlink:href="#E1-MJMAIN-2B" x="9214" y="0"></use>
<g transform="translate(12258,0)">
 <use transform="scale(1.2)" xlink:href="#E1-MJMATHI-77" x="0" y="0"></use>
<g transform="translate(859,-180)">
 <use transform="scale(0.849)" xlink:href="#E1-MJMATHI-6A" x="0" y="0"></use>
 <use transform="scale(0.849)" xlink:href="#E1-MJMAIN-2C" x="412" y="0"></use>
 <use transform="scale(0.849)" xlink:href="#E1-MJMATHI-69" x="691" y="0"></use>
</g>
</g>
 <use transform="scale(1.2)" xlink:href="#E1-MJMAIN-3C" x="12042" y="0"></use>
<g transform="translate(15718,0)">
 <use transform="scale(1.2)" xlink:href="#E1-MJMAIN-64" x="0" y="0"></use>
 <use transform="scale(1.2)" xlink:href="#E1-MJMAIN-69" x="556" y="0"></use>
 <use transform="scale(1.2)" xlink:href="#E1-MJMAIN-73" x="835" y="0"></use>
 <use transform="scale(1.2)" xlink:href="#E1-MJMAIN-74" x="1229" y="0"></use>
</g>
 <use transform="scale(1.2)" xlink:href="#E1-MJMAIN-5B" x="14717" y="0"></use>
 <use transform="scale(1.2)" xlink:href="#E1-MJMATHI-73" x="14995" y="0"></use>
 <use transform="scale(1.2)" xlink:href="#E1-MJMAIN-2C" x="15465" y="0"></use>
<g transform="translate(19092,0)">
 <use transform="scale(1.2)" xlink:href="#E1-MJMATHI-76" x="0" y="0"></use>
 <use transform="scale(0.849)" xlink:href="#E1-MJMATHI-69" x="686" y="-213"></use>
</g>
 <use transform="scale(1.2)" xlink:href="#E1-MJMAIN-5D" x="16740" y="0"></use>
<g transform="translate(20756,0)">
 <use transform="scale(1.2)" xlink:href="#E1-MJMAINB-74" x="0" y="0"></use>
 <use transform="scale(1.2)" xlink:href="#E1-MJMAINB-68" x="447" y="0"></use>
 <use transform="scale(1.2)" xlink:href="#E1-MJMAINB-65" x="1087" y="0"></use>
 <use transform="scale(1.2)" xlink:href="#E1-MJMAINB-6E" x="1614" y="0"></use>
</g>
</g>
<g transform="translate(0,-12826)">
 <use transform="scale(1.2)" xlink:href="#E1-MJMAIN-31"></use>
 <use transform="scale(1.2)" xlink:href="#E1-MJMAIN-30" x="500" y="0"></use>
 <use transform="scale(1.2)" xlink:href="#E1-MJMAIN-3A" x="1278" y="0"></use>
<g transform="translate(6035,0)">
 <use transform="scale(1.2)" xlink:href="#E1-MJMAIN-64" x="0" y="0"></use>
 <use transform="scale(1.2)" xlink:href="#E1-MJMAIN-69" x="556" y="0"></use>
 <use transform="scale(1.2)" xlink:href="#E1-MJMAIN-73" x="835" y="0"></use>
 <use transform="scale(1.2)" xlink:href="#E1-MJMAIN-74" x="1229" y="0"></use>
</g>
 <use transform="scale(1.2)" xlink:href="#E1-MJMAIN-5B" x="6648" y="0"></use>
 <use transform="scale(1.2)" xlink:href="#E1-MJMATHI-73" x="6927" y="0"></use>
 <use transform="scale(1.2)" xlink:href="#E1-MJMAIN-2C" x="7396" y="0"></use>
<g transform="translate(9410,0)">
 <use transform="scale(1.2)" xlink:href="#E1-MJMATHI-76" x="0" y="0"></use>
 <use transform="scale(0.849)" xlink:href="#E1-MJMATHI-69" x="686" y="-213"></use>
</g>
 <use transform="scale(1.2)" xlink:href="#E1-MJMAIN-5D" x="8671" y="0"></use>
 <use transform="scale(1.2)" xlink:href="#E1-MJMAIN-2190" x="9227" y="0"></use>
<g transform="translate(12607,0)">
 <use transform="scale(1.2)" xlink:href="#E1-MJMAIN-64" x="0" y="0"></use>
 <use transform="scale(1.2)" xlink:href="#E1-MJMAIN-69" x="556" y="0"></use>
 <use transform="scale(1.2)" xlink:href="#E1-MJMAIN-73" x="835" y="0"></use>
 <use transform="scale(1.2)" xlink:href="#E1-MJMAIN-74" x="1229" y="0"></use>
</g>
 <use transform="scale(1.2)" xlink:href="#E1-MJMAIN-5B" x="12125" y="0"></use>
 <use transform="scale(1.2)" xlink:href="#E1-MJMATHI-73" x="12403" y="0"></use>
 <use transform="scale(1.2)" xlink:href="#E1-MJMAIN-2C" x="12873" y="0"></use>
<g transform="translate(15981,0)">
 <use transform="scale(1.2)" xlink:href="#E1-MJMATHI-76" x="0" y="0"></use>
 <use transform="scale(0.849)" xlink:href="#E1-MJMATHI-6A" x="686" y="-213"></use>
</g>
 <use transform="scale(1.2)" xlink:href="#E1-MJMAIN-5D" x="14195" y="0"></use>
 <use transform="scale(1.2)" xlink:href="#E1-MJMAIN-2B" x="14696" y="0"></use>
<g transform="translate(18836,0)">
 <use transform="scale(1.2)" xlink:href="#E1-MJMATHI-77" x="0" y="0"></use>
<g transform="translate(859,-180)">
 <use transform="scale(0.849)" xlink:href="#E1-MJMATHI-6A" x="0" y="0"></use>
 <use transform="scale(0.849)" xlink:href="#E1-MJMAIN-2C" x="412" y="0"></use>
 <use transform="scale(0.849)" xlink:href="#E1-MJMATHI-69" x="691" y="0"></use>
</g>
</g>
</g>
</g>
</g>
</g>
<line stroke-linecap="square" stroke-width="75" y2="37" y1="37" x1="37" x2="44972" transform="translate(0,13979)"></line>
<line stroke-linecap="square" stroke-width="75" y1="37" x2="37" x1="37" y2="27470" transform="translate(44935,-13455)"></line>
<line stroke-linecap="square" stroke-width="75" y2="37" y1="37" x1="37" x2="44972" transform="translate(0,-13455)"></line>
<line stroke-linecap="square" stroke-width="75" y1="37" x2="37" x1="37" y2="27470" transform="translate(0,-13455)"></line>
</g>
</g>
</g>
</g>
</svg>